<svg width="53" height="26" viewBox="0 0 53 26" fill="none" xmlns="http://www.w3.org/2000/svg">
<path d="M0 0V26H26.7843L53 0H0ZM32.2961 15.9976H30.6111V20.9663H22.884L22.1174 18.5889C21.2997 18.8549 20.3749 19.0038 19.3975 19.0038C18.42 19.0038 17.4457 18.8454 16.612 18.5667L15.8166 20.9663H11.0795L11.6017 19.5788C11.5394 19.6342 11.4772 19.6897 11.4117 19.7419C10.2298 20.6844 8.75241 21.2039 6.92047 21.2356H6.64896C4.5471 21.2372 2.48677 20.6622 0.744274 19.6802L2.3558 16.506C4.10149 17.5292 5.19555 17.7573 6.67611 17.7288C7.44274 17.7145 7.99536 17.5751 8.35791 17.2045C8.57513 16.978 8.69332 16.6992 8.69811 16.3983C8.71248 15.5731 7.53059 15.1866 6.08356 14.7431C4.90966 14.3804 3.57763 13.8894 2.53788 13.1323C1.30328 12.2326 0.715526 11.108 0.744274 9.51934C0.76344 8.36467 1.19467 7.32403 1.99325 6.50198C3.14001 5.32671 4.99111 4.61237 7.21116 4.61237H7.22393C9.12774 4.61553 11.45 5.14931 13.1334 5.99988L11.3174 9.13128C9.47752 8.24904 8.55117 8.16668 7.50184 8.11124C5.94142 8.02729 5.15083 8.58166 5.14124 9.1788C5.12847 9.90582 6.61542 10.5663 8.02411 11.013C10.1531 11.6846 12.8587 12.5826 13.2708 15.1739L17.1598 4.88638H21.6782L26.2365 17.1871V4.88638H31.4528C36.4391 4.88638 38.7821 6.65087 38.7821 10.4919C38.7821 13.9416 36.3704 15.9976 32.2961 15.9976V15.9976Z" fill= var(--vscode-settings-headerForeground)/>
<path d="M31.7593 8.27124H30.6094V12.4417H31.7593C33.2926 12.4417 34.5128 11.9364 34.5128 10.3319C34.5128 8.72741 33.2926 8.27124 31.7593 8.27124Z" fill= var(--vscode-settings-headerForeground)/>
<path d="M19.3783 9.9502L17.7236 15.1233C18.2156 15.3086 18.7873 15.4163 19.3959 15.4163C20.0044 15.4163 20.5458 15.3133 21.0329 15.1391L19.4134 9.95178H19.3799L19.3783 9.9502Z" fill= var(--vscode-settings-headerForeground)/>
</svg>
