<?xml version="1.0" encoding="UTF-8" standalone="no"?>
<!DOCTYPE svg PUBLIC "-//W3C//DTD SVG 1.1//EN"
 "http://www.w3.org/Graphics/SVG/1.1/DTD/svg11.dtd">
<!-- Generated by graphviz version 3.0.0 (20220226.1711)
 -->
<!-- Title: G Pages: 1 -->
<svg width="660pt" height="188pt"
 viewBox="0.00 0.00 660.32 188.00" xmlns="http://www.w3.org/2000/svg" xmlns:xlink="http://www.w3.org/1999/xlink">
<g id="graph0" class="graph" transform="scale(1 1) rotate(0) translate(4 184)">
<title>G</title>
<polygon fill="white" stroke="transparent" points="-4,4 -4,-184 656.32,-184 656.32,4 -4,4"/>
<!-- @sap/guided&#45;answers&#45;extension&#45;core -->
<g id="node1" class="node">
<title>@sap/guided&#45;answers&#45;extension&#45;core</title>
<ellipse fill="none" stroke="black" stroke-dasharray="5,2" cx="142.99" cy="-90" rx="142.97" ry="18"/>
<text text-anchor="middle" x="142.99" y="-86.3" font-family="Times,serif" font-size="14.00">@sap/guided&#45;answers&#45;extension&#45;core</text>
</g>
<!-- @sap/guided&#45;answers&#45;extension&#45;types -->
<g id="node2" class="node">
<title>@sap/guided&#45;answers&#45;extension&#45;types</title>
<ellipse fill="none" stroke="black" stroke-dasharray="5,2" cx="313.99" cy="-18" rx="146.47" ry="18"/>
<text text-anchor="middle" x="313.99" y="-14.3" font-family="Times,serif" font-size="14.00">@sap/guided&#45;answers&#45;extension&#45;types</text>
</g>
<!-- @sap/guided&#45;answers&#45;extension&#45;core&#45;&gt;@sap/guided&#45;answers&#45;extension&#45;types -->
<g id="edge1" class="edge">
<title>@sap/guided&#45;answers&#45;extension&#45;core&#45;&gt;@sap/guided&#45;answers&#45;extension&#45;types</title>
<path fill="none" stroke="black" d="M183.08,-72.59C207.43,-62.62 238.71,-49.82 264.59,-39.22"/>
<polygon fill="black" stroke="black" points="265.92,-42.46 273.85,-35.43 263.27,-35.98 265.92,-42.46"/>
</g>
<!-- sap&#45;guided&#45;answer&#45;extension -->
<g id="node3" class="node">
<title>sap&#45;guided&#45;answer&#45;extension</title>
<ellipse fill="none" stroke="black" cx="227.99" cy="-162" rx="113.98" ry="18"/>
<text text-anchor="middle" x="227.99" y="-158.3" font-family="Times,serif" font-size="14.00">sap&#45;guided&#45;answer&#45;extension</text>
</g>
<!-- sap&#45;guided&#45;answer&#45;extension&#45;&gt;@sap/guided&#45;answers&#45;extension&#45;core -->
<g id="edge2" class="edge">
<title>sap&#45;guided&#45;answer&#45;extension&#45;&gt;@sap/guided&#45;answers&#45;extension&#45;core</title>
<path fill="none" stroke="black" stroke-dasharray="5,2" d="M207.41,-144.05C196.63,-135.18 183.26,-124.17 171.5,-114.48"/>
<polygon fill="black" stroke="black" points="173.61,-111.69 163.67,-108.03 169.16,-117.09 173.61,-111.69"/>
</g>
<!-- sap&#45;guided&#45;answer&#45;extension&#45;&gt;@sap/guided&#45;answers&#45;extension&#45;types -->
<g id="edge3" class="edge">
<title>sap&#45;guided&#45;answer&#45;extension&#45;&gt;@sap/guided&#45;answers&#45;extension&#45;types</title>
<path fill="none" stroke="black" stroke-dasharray="5,2" d="M257.01,-144.59C270.54,-135.5 285.67,-122.99 294.99,-108 306.56,-89.38 311.17,-64.79 312.96,-46.18"/>
<polygon fill="black" stroke="black" points="316.47,-46.24 313.73,-36.01 309.49,-45.72 316.47,-46.24"/>
</g>
<!-- @sap/guided&#45;answers&#45;extension&#45;webapp -->
<g id="node4" class="node">
<title>@sap/guided&#45;answers&#45;extension&#45;webapp</title>
<ellipse fill="none" stroke="black" stroke-dasharray="5,2" cx="496.99" cy="-90" rx="155.17" ry="18"/>
<text text-anchor="middle" x="496.99" y="-86.3" font-family="Times,serif" font-size="14.00">@sap/guided&#45;answers&#45;extension&#45;webapp</text>
</g>
<!-- @sap/guided&#45;answers&#45;extension&#45;webapp&#45;&gt;@sap/guided&#45;answers&#45;extension&#45;types -->
<g id="edge4" class="edge">
<title>@sap/guided&#45;answers&#45;extension&#45;webapp&#45;&gt;@sap/guided&#45;answers&#45;extension&#45;types</title>
<path fill="none" stroke="black" stroke-dasharray="5,2" d="M454.08,-72.59C427.81,-62.54 394.01,-49.61 366.19,-38.97"/>
<polygon fill="black" stroke="black" points="367.21,-35.61 356.62,-35.31 364.71,-42.15 367.21,-35.61"/>
</g>
</g>
</svg>
