<svg width="128" height="128" viewBox="0 0 128 128" fill="none" xmlns="http://www.w3.org/2000/svg">
<rect width="128" height="128" rx="16" fill="white"/>
<path d="M48 8L19.0299 15.2425C17.2492 15.6877 16 17.2876 16 19.1231V114.877C16 117.479 18.4456 119.389 20.9701 118.757L48 112V8Z" fill="#11317E"/>
<path d="M107.03 9.24254L80 16V120L108.97 112.757C110.751 112.312 112 110.712 112 108.877V13.1231C112 10.5208 109.554 8.61139 107.03 9.24254Z" fill="#11317E"/>
<path d="M48 8L80 16V120L48 112V8Z" fill="#FFC94D"/>
<g filter="url(#filter0_d_4618_11939)">
<path d="M99.0819 31.9845C99.911 30.2768 98.1171 28.4829 96.4093 29.3119L52.4857 49.5939C51.191 50.1918 50.1515 51.2312 49.5537 52.5259L29.2718 96.4496C28.4428 98.1574 30.2366 99.9513 31.9444 99.1223L75.868 78.8403C77.1627 78.2424 78.2022 77.203 78.8 75.9083L99.0819 31.9845Z" fill="white"/>
</g>
<circle cx="64" cy="64" r="8" fill="#C2295E"/>
<defs>
<filter id="filter0_d_4618_11939" x="25.063" y="25.1031" width="78.2278" height="78.2279" filterUnits="userSpaceOnUse" color-interpolation-filters="sRGB">
<feFlood flood-opacity="0" result="BackgroundImageFix"/>
<feColorMatrix in="SourceAlpha" type="matrix" values="0 0 0 0 0 0 0 0 0 0 0 0 0 0 0 0 0 0 127 0" result="hardAlpha"/>
<feOffset/>
<feGaussianBlur stdDeviation="2"/>
<feComposite in2="hardAlpha" operator="out"/>
<feColorMatrix type="matrix" values="0 0 0 0 0 0 0 0 0 0 0 0 0 0 0 0 0 0 0.45 0"/>
<feBlend mode="normal" in2="BackgroundImageFix" result="effect1_dropShadow_4618_11939"/>
<feBlend mode="normal" in="SourceGraphic" in2="effect1_dropShadow_4618_11939" result="shape"/>
</filter>
</defs>
</svg>
