<svg width="128" height="128" viewBox="0 0 128 128" fill="none" xmlns="http://www.w3.org/2000/svg">
<path d="M48 11L11.8286 19.0919C9.58268 19.5943 8 21.4596 8 23.6041V118.356C8 121.36 11.0261 123.572 14.1714 122.869L48 115V11Z" fill="#001752"/>
<path d="M80 16L48 11V115L80 120V16Z" fill="#FFC94D"/>
<path d="M80 16L113.731 7.16651C116.9 6.33446 120 8.72557 120 12.0027V62.5208H80V16Z" fill="#001752"/>
<path d="M116.269 109.479L80 120V62.5208H120V104.643C120 106.916 118.468 108.902 116.269 109.479Z" fill="#001752"/>
<g filter="url(#filter0_d_428_4855)">
<path d="M104.082 26.9845C104.911 25.2768 103.117 23.4829 101.409 24.3119L51.3497 48.6125C50.1385 49.2004 49.1602 50.1787 48.5722 51.3899L24.2718 101.45C23.4427 103.157 25.2366 104.951 26.9444 104.122L77.004 79.8217C78.2153 79.2338 79.1935 78.2555 79.7815 77.0443L104.082 26.9845Z" fill="white"/>
</g>
<circle cx="64" cy="64" r="8" fill="#C2295E"/>
<defs>
<filter id="filter0_d_428_4855" x="20.063" y="20.1031" width="88.2278" height="88.2279" filterUnits="userSpaceOnUse" color-interpolation-filters="sRGB">
<feFlood flood-opacity="0" result="BackgroundImageFix"/>
<feColorMatrix in="SourceAlpha" type="matrix" values="0 0 0 0 0 0 0 0 0 0 0 0 0 0 0 0 0 0 127 0" result="hardAlpha"/>
<feOffset/>
<feGaussianBlur stdDeviation="2"/>
<feComposite in2="hardAlpha" operator="out"/>
<feColorMatrix type="matrix" values="0 0 0 0 0 0 0 0 0 0 0 0 0 0 0 0 0 0 0.45 0"/>
<feBlend mode="normal" in2="BackgroundImageFix" result="effect1_dropShadow_428_4855"/>
<feBlend mode="normal" in="SourceGraphic" in2="effect1_dropShadow_428_4855" result="shape"/>
</filter>
</defs>
</svg>
